<mxfile host="app.diagrams.net" modified="2024-01-03T21:37:56.952Z" agent="Mozilla/5.0 (Macintosh; Intel Mac OS X 10_15_7) AppleWebKit/537.36 (KHTML, like Gecko) Chrome/119.0.0.0 Safari/537.36" etag="XvH-W1tuheBSV8BQpq48" version="22.1.16" type="device">
  <diagram id="R2lEEEUBdFMjLlhIrx00" name="Page-1">
    <mxGraphModel dx="1972" dy="585" grid="1" gridSize="10" guides="1" tooltips="1" connect="1" arrows="1" fold="1" page="1" pageScale="1" pageWidth="850" pageHeight="1100" math="0" shadow="0" extFonts="Permanent Marker^https://fonts.googleapis.com/css?family=Permanent+Marker">
      <root>
        <mxCell id="0" />
        <mxCell id="1" parent="0" />
        <mxCell id="_hPSyPpwnRuMoc_Zs4vo-1" value="Cliente" style="rounded=0;whiteSpace=wrap;html=1;" vertex="1" parent="1">
          <mxGeometry x="20" y="220" width="80" height="30" as="geometry" />
        </mxCell>
        <mxCell id="_hPSyPpwnRuMoc_Zs4vo-2" value="Venta" style="rounded=0;whiteSpace=wrap;html=1;" vertex="1" parent="1">
          <mxGeometry x="380" y="220" width="80" height="30" as="geometry" />
        </mxCell>
        <mxCell id="_hPSyPpwnRuMoc_Zs4vo-3" value="Producto" style="rounded=0;whiteSpace=wrap;html=1;" vertex="1" parent="1">
          <mxGeometry x="740" y="220" width="80" height="30" as="geometry" />
        </mxCell>
        <mxCell id="_hPSyPpwnRuMoc_Zs4vo-4" value="tiene" style="rhombus;whiteSpace=wrap;html=1;" vertex="1" parent="1">
          <mxGeometry x="200" y="195" width="80" height="80" as="geometry" />
        </mxCell>
        <mxCell id="_hPSyPpwnRuMoc_Zs4vo-5" value="tiene" style="rhombus;whiteSpace=wrap;html=1;" vertex="1" parent="1">
          <mxGeometry x="560" y="195" width="80" height="80" as="geometry" />
        </mxCell>
        <mxCell id="_hPSyPpwnRuMoc_Zs4vo-6" value="" style="endArrow=none;html=1;rounded=0;exitX=1;exitY=0.5;exitDx=0;exitDy=0;entryX=0;entryY=0.5;entryDx=0;entryDy=0;" edge="1" parent="1" source="_hPSyPpwnRuMoc_Zs4vo-1" target="_hPSyPpwnRuMoc_Zs4vo-4">
          <mxGeometry width="50" height="50" relative="1" as="geometry">
            <mxPoint x="400" y="150" as="sourcePoint" />
            <mxPoint x="450" y="100" as="targetPoint" />
          </mxGeometry>
        </mxCell>
        <mxCell id="_hPSyPpwnRuMoc_Zs4vo-12" value="1" style="edgeLabel;html=1;align=center;verticalAlign=middle;resizable=0;points=[];fontSize=12;" vertex="1" connectable="0" parent="_hPSyPpwnRuMoc_Zs4vo-6">
          <mxGeometry x="-0.72" y="1" relative="1" as="geometry">
            <mxPoint as="offset" />
          </mxGeometry>
        </mxCell>
        <mxCell id="_hPSyPpwnRuMoc_Zs4vo-7" value="" style="endArrow=none;html=1;rounded=0;exitX=1;exitY=0.5;exitDx=0;exitDy=0;entryX=0;entryY=0.5;entryDx=0;entryDy=0;" edge="1" parent="1" source="_hPSyPpwnRuMoc_Zs4vo-4" target="_hPSyPpwnRuMoc_Zs4vo-2">
          <mxGeometry width="50" height="50" relative="1" as="geometry">
            <mxPoint x="400" y="150" as="sourcePoint" />
            <mxPoint x="450" y="100" as="targetPoint" />
          </mxGeometry>
        </mxCell>
        <mxCell id="_hPSyPpwnRuMoc_Zs4vo-13" value="n" style="edgeLabel;html=1;align=center;verticalAlign=middle;resizable=0;points=[];fontSize=12;" vertex="1" connectable="0" parent="_hPSyPpwnRuMoc_Zs4vo-7">
          <mxGeometry x="0.74" y="3" relative="1" as="geometry">
            <mxPoint as="offset" />
          </mxGeometry>
        </mxCell>
        <mxCell id="_hPSyPpwnRuMoc_Zs4vo-8" value="" style="endArrow=none;html=1;rounded=0;exitX=1;exitY=0.5;exitDx=0;exitDy=0;entryX=0;entryY=0.5;entryDx=0;entryDy=0;" edge="1" parent="1" source="_hPSyPpwnRuMoc_Zs4vo-2" target="_hPSyPpwnRuMoc_Zs4vo-5">
          <mxGeometry width="50" height="50" relative="1" as="geometry">
            <mxPoint x="400" y="150" as="sourcePoint" />
            <mxPoint x="450" y="100" as="targetPoint" />
          </mxGeometry>
        </mxCell>
        <mxCell id="_hPSyPpwnRuMoc_Zs4vo-15" value="n" style="edgeLabel;html=1;align=center;verticalAlign=middle;resizable=0;points=[];fontSize=12;" vertex="1" connectable="0" parent="_hPSyPpwnRuMoc_Zs4vo-8">
          <mxGeometry x="-0.78" y="1" relative="1" as="geometry">
            <mxPoint as="offset" />
          </mxGeometry>
        </mxCell>
        <mxCell id="_hPSyPpwnRuMoc_Zs4vo-9" value="" style="endArrow=none;html=1;rounded=0;entryX=0;entryY=0.5;entryDx=0;entryDy=0;exitX=1;exitY=0.5;exitDx=0;exitDy=0;" edge="1" parent="1" source="_hPSyPpwnRuMoc_Zs4vo-5" target="_hPSyPpwnRuMoc_Zs4vo-3">
          <mxGeometry width="50" height="50" relative="1" as="geometry">
            <mxPoint x="400" y="150" as="sourcePoint" />
            <mxPoint x="450" y="100" as="targetPoint" />
          </mxGeometry>
        </mxCell>
        <mxCell id="_hPSyPpwnRuMoc_Zs4vo-14" value="n" style="edgeLabel;html=1;align=center;verticalAlign=middle;resizable=0;points=[];fontSize=12;" vertex="1" connectable="0" parent="_hPSyPpwnRuMoc_Zs4vo-9">
          <mxGeometry x="0.68" y="1" relative="1" as="geometry">
            <mxPoint as="offset" />
          </mxGeometry>
        </mxCell>
        <mxCell id="_hPSyPpwnRuMoc_Zs4vo-16" value="primer_nombre" style="ellipse;whiteSpace=wrap;html=1;" vertex="1" parent="1">
          <mxGeometry x="-130" y="300" width="100" height="40" as="geometry" />
        </mxCell>
        <mxCell id="_hPSyPpwnRuMoc_Zs4vo-17" value="segundo_nombre" style="ellipse;whiteSpace=wrap;html=1;" vertex="1" parent="1">
          <mxGeometry x="-30" y="340" width="100" height="40" as="geometry" />
        </mxCell>
        <mxCell id="_hPSyPpwnRuMoc_Zs4vo-18" value="primer_apellido" style="ellipse;whiteSpace=wrap;html=1;" vertex="1" parent="1">
          <mxGeometry x="90" y="340" width="100" height="40" as="geometry" />
        </mxCell>
        <mxCell id="_hPSyPpwnRuMoc_Zs4vo-19" value="segundo_apellido" style="ellipse;whiteSpace=wrap;html=1;" vertex="1" parent="1">
          <mxGeometry x="170" y="300" width="100" height="40" as="geometry" />
        </mxCell>
        <mxCell id="_hPSyPpwnRuMoc_Zs4vo-20" value="&lt;u&gt;id&lt;/u&gt;" style="ellipse;whiteSpace=wrap;html=1;" vertex="1" parent="1">
          <mxGeometry x="90" y="130" width="50" height="30" as="geometry" />
        </mxCell>
        <mxCell id="_hPSyPpwnRuMoc_Zs4vo-21" value="" style="endArrow=none;html=1;rounded=0;exitX=0.75;exitY=0;exitDx=0;exitDy=0;entryX=0.5;entryY=1;entryDx=0;entryDy=0;" edge="1" parent="1" source="_hPSyPpwnRuMoc_Zs4vo-1" target="_hPSyPpwnRuMoc_Zs4vo-20">
          <mxGeometry width="50" height="50" relative="1" as="geometry">
            <mxPoint x="190" y="260" as="sourcePoint" />
            <mxPoint x="240" y="210" as="targetPoint" />
          </mxGeometry>
        </mxCell>
        <mxCell id="_hPSyPpwnRuMoc_Zs4vo-22" value="" style="endArrow=none;html=1;rounded=0;exitX=1;exitY=1;exitDx=0;exitDy=0;entryX=0;entryY=0;entryDx=0;entryDy=0;" edge="1" parent="1" source="_hPSyPpwnRuMoc_Zs4vo-1" target="_hPSyPpwnRuMoc_Zs4vo-19">
          <mxGeometry width="50" height="50" relative="1" as="geometry">
            <mxPoint x="190" y="260" as="sourcePoint" />
            <mxPoint x="240" y="210" as="targetPoint" />
          </mxGeometry>
        </mxCell>
        <mxCell id="_hPSyPpwnRuMoc_Zs4vo-23" value="" style="endArrow=none;html=1;rounded=0;exitX=0.75;exitY=1;exitDx=0;exitDy=0;entryX=0.5;entryY=0;entryDx=0;entryDy=0;" edge="1" parent="1" source="_hPSyPpwnRuMoc_Zs4vo-1" target="_hPSyPpwnRuMoc_Zs4vo-18">
          <mxGeometry width="50" height="50" relative="1" as="geometry">
            <mxPoint x="190" y="260" as="sourcePoint" />
            <mxPoint x="240" y="210" as="targetPoint" />
          </mxGeometry>
        </mxCell>
        <mxCell id="_hPSyPpwnRuMoc_Zs4vo-24" value="" style="endArrow=none;html=1;rounded=0;exitX=0.5;exitY=1;exitDx=0;exitDy=0;entryX=0.5;entryY=0;entryDx=0;entryDy=0;" edge="1" parent="1" source="_hPSyPpwnRuMoc_Zs4vo-1" target="_hPSyPpwnRuMoc_Zs4vo-17">
          <mxGeometry width="50" height="50" relative="1" as="geometry">
            <mxPoint x="190" y="260" as="sourcePoint" />
            <mxPoint x="240" y="210" as="targetPoint" />
          </mxGeometry>
        </mxCell>
        <mxCell id="_hPSyPpwnRuMoc_Zs4vo-25" value="" style="endArrow=none;html=1;rounded=0;exitX=0.25;exitY=1;exitDx=0;exitDy=0;entryX=0.5;entryY=0;entryDx=0;entryDy=0;" edge="1" parent="1" source="_hPSyPpwnRuMoc_Zs4vo-1" target="_hPSyPpwnRuMoc_Zs4vo-16">
          <mxGeometry width="50" height="50" relative="1" as="geometry">
            <mxPoint x="190" y="260" as="sourcePoint" />
            <mxPoint x="240" y="210" as="targetPoint" />
          </mxGeometry>
        </mxCell>
        <mxCell id="_hPSyPpwnRuMoc_Zs4vo-26" value="&lt;u&gt;id&lt;/u&gt;" style="ellipse;whiteSpace=wrap;html=1;" vertex="1" parent="1">
          <mxGeometry x="340" y="130" width="50" height="30" as="geometry" />
        </mxCell>
        <mxCell id="_hPSyPpwnRuMoc_Zs4vo-27" value="" style="endArrow=none;html=1;rounded=0;entryX=0.5;entryY=1;entryDx=0;entryDy=0;exitX=0.25;exitY=0;exitDx=0;exitDy=0;" edge="1" parent="1" source="_hPSyPpwnRuMoc_Zs4vo-2" target="_hPSyPpwnRuMoc_Zs4vo-26">
          <mxGeometry width="50" height="50" relative="1" as="geometry">
            <mxPoint x="310" y="270" as="sourcePoint" />
            <mxPoint x="360" y="220" as="targetPoint" />
          </mxGeometry>
        </mxCell>
        <mxCell id="_hPSyPpwnRuMoc_Zs4vo-28" value="&lt;span&gt;fecha&lt;/span&gt;" style="ellipse;whiteSpace=wrap;html=1;fontStyle=0" vertex="1" parent="1">
          <mxGeometry x="440" y="130" width="50" height="30" as="geometry" />
        </mxCell>
        <mxCell id="_hPSyPpwnRuMoc_Zs4vo-29" value="" style="endArrow=none;html=1;rounded=0;entryX=0.5;entryY=1;entryDx=0;entryDy=0;exitX=0.75;exitY=0;exitDx=0;exitDy=0;" edge="1" parent="1" source="_hPSyPpwnRuMoc_Zs4vo-2" target="_hPSyPpwnRuMoc_Zs4vo-28">
          <mxGeometry width="50" height="50" relative="1" as="geometry">
            <mxPoint x="310" y="270" as="sourcePoint" />
            <mxPoint x="360" y="220" as="targetPoint" />
          </mxGeometry>
        </mxCell>
        <mxCell id="_hPSyPpwnRuMoc_Zs4vo-30" value="&lt;span&gt;id&lt;/span&gt;" style="ellipse;whiteSpace=wrap;html=1;fontStyle=4" vertex="1" parent="1">
          <mxGeometry x="690" y="130" width="50" height="30" as="geometry" />
        </mxCell>
        <mxCell id="_hPSyPpwnRuMoc_Zs4vo-31" value="&lt;span&gt;nombre&lt;/span&gt;" style="ellipse;whiteSpace=wrap;html=1;fontStyle=0" vertex="1" parent="1">
          <mxGeometry x="770" y="130" width="50" height="30" as="geometry" />
        </mxCell>
        <mxCell id="_hPSyPpwnRuMoc_Zs4vo-32" value="&lt;span&gt;descripcion&lt;/span&gt;" style="ellipse;whiteSpace=wrap;html=1;fontStyle=0" vertex="1" parent="1">
          <mxGeometry x="860" y="150" width="70" height="40" as="geometry" />
        </mxCell>
        <mxCell id="_hPSyPpwnRuMoc_Zs4vo-33" value="&lt;span&gt;cantidad&lt;/span&gt;" style="ellipse;whiteSpace=wrap;html=1;fontStyle=0" vertex="1" parent="1">
          <mxGeometry x="575" y="320" width="50" height="30" as="geometry" />
        </mxCell>
        <mxCell id="_hPSyPpwnRuMoc_Zs4vo-34" value="" style="endArrow=none;html=1;rounded=0;exitX=0.5;exitY=0;exitDx=0;exitDy=0;entryX=0.5;entryY=1;entryDx=0;entryDy=0;" edge="1" parent="1" source="_hPSyPpwnRuMoc_Zs4vo-33" target="_hPSyPpwnRuMoc_Zs4vo-5">
          <mxGeometry width="50" height="50" relative="1" as="geometry">
            <mxPoint x="490" y="270" as="sourcePoint" />
            <mxPoint x="540" y="220" as="targetPoint" />
          </mxGeometry>
        </mxCell>
        <mxCell id="_hPSyPpwnRuMoc_Zs4vo-35" value="" style="endArrow=none;html=1;rounded=0;entryX=0.5;entryY=1;entryDx=0;entryDy=0;exitX=0;exitY=0;exitDx=0;exitDy=0;" edge="1" parent="1" source="_hPSyPpwnRuMoc_Zs4vo-3" target="_hPSyPpwnRuMoc_Zs4vo-30">
          <mxGeometry width="50" height="50" relative="1" as="geometry">
            <mxPoint x="490" y="270" as="sourcePoint" />
            <mxPoint x="540" y="220" as="targetPoint" />
          </mxGeometry>
        </mxCell>
        <mxCell id="_hPSyPpwnRuMoc_Zs4vo-36" value="" style="endArrow=none;html=1;rounded=0;entryX=0.5;entryY=1;entryDx=0;entryDy=0;exitX=0.5;exitY=0;exitDx=0;exitDy=0;" edge="1" parent="1" source="_hPSyPpwnRuMoc_Zs4vo-3" target="_hPSyPpwnRuMoc_Zs4vo-31">
          <mxGeometry width="50" height="50" relative="1" as="geometry">
            <mxPoint x="490" y="270" as="sourcePoint" />
            <mxPoint x="540" y="220" as="targetPoint" />
          </mxGeometry>
        </mxCell>
        <mxCell id="_hPSyPpwnRuMoc_Zs4vo-37" value="" style="endArrow=none;html=1;rounded=0;entryX=0;entryY=1;entryDx=0;entryDy=0;exitX=1;exitY=0;exitDx=0;exitDy=0;" edge="1" parent="1" source="_hPSyPpwnRuMoc_Zs4vo-3" target="_hPSyPpwnRuMoc_Zs4vo-32">
          <mxGeometry width="50" height="50" relative="1" as="geometry">
            <mxPoint x="490" y="270" as="sourcePoint" />
            <mxPoint x="540" y="220" as="targetPoint" />
          </mxGeometry>
        </mxCell>
        <mxCell id="_hPSyPpwnRuMoc_Zs4vo-38" value="Stock" style="rounded=0;whiteSpace=wrap;html=1;" vertex="1" parent="1">
          <mxGeometry x="745" y="390" width="70" height="30" as="geometry" />
        </mxCell>
        <mxCell id="_hPSyPpwnRuMoc_Zs4vo-39" value="tiene" style="rhombus;whiteSpace=wrap;html=1;" vertex="1" parent="1">
          <mxGeometry x="750" y="290" width="60" height="60" as="geometry" />
        </mxCell>
        <mxCell id="_hPSyPpwnRuMoc_Zs4vo-40" value="" style="endArrow=none;html=1;rounded=0;exitX=0.5;exitY=0;exitDx=0;exitDy=0;entryX=0.5;entryY=1;entryDx=0;entryDy=0;" edge="1" parent="1" source="_hPSyPpwnRuMoc_Zs4vo-39" target="_hPSyPpwnRuMoc_Zs4vo-3">
          <mxGeometry width="50" height="50" relative="1" as="geometry">
            <mxPoint x="710" y="290" as="sourcePoint" />
            <mxPoint x="760" y="240" as="targetPoint" />
          </mxGeometry>
        </mxCell>
        <mxCell id="_hPSyPpwnRuMoc_Zs4vo-52" value="1" style="edgeLabel;html=1;align=center;verticalAlign=middle;resizable=0;points=[];" vertex="1" connectable="0" parent="_hPSyPpwnRuMoc_Zs4vo-40">
          <mxGeometry x="0.6833" relative="1" as="geometry">
            <mxPoint y="4" as="offset" />
          </mxGeometry>
        </mxCell>
        <mxCell id="_hPSyPpwnRuMoc_Zs4vo-41" value="" style="endArrow=none;html=1;rounded=0;exitX=0.5;exitY=0;exitDx=0;exitDy=0;entryX=0.5;entryY=1;entryDx=0;entryDy=0;" edge="1" parent="1" source="_hPSyPpwnRuMoc_Zs4vo-38" target="_hPSyPpwnRuMoc_Zs4vo-39">
          <mxGeometry width="50" height="50" relative="1" as="geometry">
            <mxPoint x="710" y="290" as="sourcePoint" />
            <mxPoint x="760" y="240" as="targetPoint" />
          </mxGeometry>
        </mxCell>
        <mxCell id="_hPSyPpwnRuMoc_Zs4vo-53" value="n" style="edgeLabel;html=1;align=center;verticalAlign=middle;resizable=0;points=[];fontSize=12;" vertex="1" connectable="0" parent="_hPSyPpwnRuMoc_Zs4vo-41">
          <mxGeometry x="-0.5786" y="1" relative="1" as="geometry">
            <mxPoint x="1" y="-11" as="offset" />
          </mxGeometry>
        </mxCell>
        <mxCell id="_hPSyPpwnRuMoc_Zs4vo-43" value="&lt;span&gt;id&lt;/span&gt;" style="ellipse;whiteSpace=wrap;html=1;fontStyle=4" vertex="1" parent="1">
          <mxGeometry x="650" y="420" width="50" height="30" as="geometry" />
        </mxCell>
        <mxCell id="_hPSyPpwnRuMoc_Zs4vo-44" value="&lt;span&gt;fecha&lt;/span&gt;" style="ellipse;whiteSpace=wrap;html=1;fontStyle=0" vertex="1" parent="1">
          <mxGeometry x="690" y="480" width="50" height="30" as="geometry" />
        </mxCell>
        <mxCell id="_hPSyPpwnRuMoc_Zs4vo-46" value="&lt;span&gt;hora&lt;/span&gt;" style="ellipse;whiteSpace=wrap;html=1;fontStyle=0" vertex="1" parent="1">
          <mxGeometry x="765" y="510" width="50" height="30" as="geometry" />
        </mxCell>
        <mxCell id="_hPSyPpwnRuMoc_Zs4vo-47" value="&lt;span&gt;cantidad&lt;/span&gt;" style="ellipse;whiteSpace=wrap;html=1;fontStyle=0" vertex="1" parent="1">
          <mxGeometry x="850" y="480" width="60" height="40" as="geometry" />
        </mxCell>
        <mxCell id="_hPSyPpwnRuMoc_Zs4vo-48" value="" style="endArrow=none;html=1;rounded=0;exitX=1;exitY=0.5;exitDx=0;exitDy=0;entryX=0;entryY=0.5;entryDx=0;entryDy=0;" edge="1" parent="1" source="_hPSyPpwnRuMoc_Zs4vo-43" target="_hPSyPpwnRuMoc_Zs4vo-38">
          <mxGeometry width="50" height="50" relative="1" as="geometry">
            <mxPoint x="710" y="490" as="sourcePoint" />
            <mxPoint x="760" y="440" as="targetPoint" />
          </mxGeometry>
        </mxCell>
        <mxCell id="_hPSyPpwnRuMoc_Zs4vo-49" value="" style="endArrow=none;html=1;rounded=0;entryX=0.25;entryY=1;entryDx=0;entryDy=0;exitX=0.5;exitY=0;exitDx=0;exitDy=0;" edge="1" parent="1" source="_hPSyPpwnRuMoc_Zs4vo-44" target="_hPSyPpwnRuMoc_Zs4vo-38">
          <mxGeometry width="50" height="50" relative="1" as="geometry">
            <mxPoint x="720" y="470" as="sourcePoint" />
            <mxPoint x="760" y="440" as="targetPoint" />
          </mxGeometry>
        </mxCell>
        <mxCell id="_hPSyPpwnRuMoc_Zs4vo-50" value="" style="endArrow=none;html=1;rounded=0;exitX=0.5;exitY=0;exitDx=0;exitDy=0;entryX=0.5;entryY=1;entryDx=0;entryDy=0;" edge="1" parent="1" source="_hPSyPpwnRuMoc_Zs4vo-46" target="_hPSyPpwnRuMoc_Zs4vo-38">
          <mxGeometry width="50" height="50" relative="1" as="geometry">
            <mxPoint x="710" y="490" as="sourcePoint" />
            <mxPoint x="760" y="440" as="targetPoint" />
          </mxGeometry>
        </mxCell>
        <mxCell id="_hPSyPpwnRuMoc_Zs4vo-51" value="" style="endArrow=none;html=1;rounded=0;exitX=0.5;exitY=0;exitDx=0;exitDy=0;entryX=0.75;entryY=1;entryDx=0;entryDy=0;" edge="1" parent="1" source="_hPSyPpwnRuMoc_Zs4vo-47" target="_hPSyPpwnRuMoc_Zs4vo-38">
          <mxGeometry width="50" height="50" relative="1" as="geometry">
            <mxPoint x="710" y="490" as="sourcePoint" />
            <mxPoint x="760" y="440" as="targetPoint" />
          </mxGeometry>
        </mxCell>
        <mxCell id="_hPSyPpwnRuMoc_Zs4vo-54" value="&lt;font style=&quot;font-size: 24px;&quot;&gt;Ejercicio&amp;nbsp;&lt;/font&gt;" style="text;html=1;strokeColor=none;fillColor=none;align=center;verticalAlign=middle;whiteSpace=wrap;rounded=0;" vertex="1" parent="1">
          <mxGeometry x="340" y="20" width="170" height="30" as="geometry" />
        </mxCell>
      </root>
    </mxGraphModel>
  </diagram>
</mxfile>
